<svg xmlns="http://www.w3.org/2000/svg" viewBox="0 0 512 512" role="img" aria-labelledby="title desc">
  <title id="title">Cutiepie mascot slice variant</title>
  <desc id="desc">A cute pie-slice mascot holding a tiny checklist.</desc>
  <rect width="512" height="512" rx="96" fill="#f8fafc"/>
  <path d="M132 344c14-112 102-200 214-214 28-3 45 31 25 51L183 369c-20 20-54 3-51-25z" fill="#fed7aa" stroke="#7c2d12" stroke-width="14" stroke-linejoin="round"/>
  <path d="M184 318c18-68 72-122 140-140L184 318z" fill="#f59e0b"/>
  <path d="M184 318l140-140c16 51 2 107-36 145s-94 52-145 36z" fill="#fb923c"/>
  <path d="M208 282c22 18 48 18 70 0" fill="none" stroke="#7c2d12" stroke-width="10" stroke-linecap="round"/>
  <circle cx="204" cy="242" r="12" fill="#7c2d12"/>
  <circle cx="282" cy="242" r="12" fill="#7c2d12"/>
  <circle cx="203" cy="266" r="14" fill="#fdba74" opacity=".85"/>
  <circle cx="283" cy="266" r="14" fill="#fdba74" opacity=".85"/>
  <path d="M170 340l-42 44M314 324l46 40" stroke="#7c2d12" stroke-width="14" stroke-linecap="round"/>
  <path d="M116 360h74v82h-74z" fill="#ffffff" stroke="#2563eb" stroke-width="10" rx="12"/>
  <path d="M132 386l10 10 22-24M132 416h34" fill="none" stroke="#0f766e" stroke-width="8" stroke-linecap="round" stroke-linejoin="round"/>
  <path d="M344 350c18 2 32 15 36 32" fill="none" stroke="#7c2d12" stroke-width="12" stroke-linecap="round"/>
  <circle cx="370" cy="397" r="16" fill="#7c3aed"/>
  <path d="M340 130l22-36 22 36 40 8-29 28 5 40-38-18-37 18 5-40-30-28z" fill="#fbbf24" stroke="#7c2d12" stroke-width="8" stroke-linejoin="round"/>
</svg>
